<svg xmlns="http://www.w3.org/2000/svg" xmlns:xlink="http://www.w3.org/1999/xlink" width="512" zoomAndPan="magnify" viewBox="0 0 384 383.999986" height="512" preserveAspectRatio="xMidYMid meet" version="1.0"><defs><g/><clipPath id="ff80a1071c"><rect x="0" width="269" y="0" height="346"/></clipPath><clipPath id="213dfffb56"><rect x="0" width="259" y="0" height="266"/></clipPath></defs><g transform="matrix(1, 0, 0, 1, 7, 14)"><g clip-path="url(#ff80a1071c)"><g fill="#00c9a7" fill-opacity="1"><g transform="translate(3.842387, 233.562563)"><g><path d="M 261.171875 -206.984375 C 261.171875 -191.179688 256.039062 -174.65625 245.78125 -157.40625 C 235.519531 -140.164062 221.359375 -125.144531 203.296875 -112.34375 C 185.234375 -99.539062 166.578125 -91.503906 147.328125 -88.234375 C 136.253906 -65.898438 128.265625 -50.285156 123.359375 -41.390625 L 117.640625 -32.140625 C 153.585938 -23.242188 183.363281 -9.71875 206.96875 8.4375 C 218.957031 17.695312 227.039062 29.046875 231.21875 42.484375 C 233.394531 49.378906 234.484375 55.28125 234.484375 60.1875 C 234.484375 65.09375 233.53125 69.222656 231.625 72.578125 C 229.71875 75.941406 227.492188 78.257812 224.953125 79.53125 C 222.410156 80.800781 220.59375 81.4375 219.5 81.4375 C 218.414062 81.4375 217.875 80.976562 217.875 80.0625 C 217.875 79.15625 218.914062 76.476562 221 72.03125 C 223.082031 67.582031 224.125 62.363281 224.125 56.375 C 224.125 50.382812 222.851562 43.753906 220.3125 36.484375 C 217.769531 29.222656 213.050781 22.550781 206.15625 16.46875 C 199.257812 10.394531 189.679688 4.679688 177.421875 -0.671875 C 165.171875 -6.035156 154.550781 -9.851562 145.5625 -12.125 C 136.570312 -14.394531 124.539062 -16.976562 109.46875 -19.875 C 94.039062 1.726562 77.972656 16.523438 61.265625 24.515625 C 51.285156 29.410156 42.4375 31.859375 34.71875 31.859375 C 27 31.859375 20.144531 30.316406 14.15625 27.234375 C 3.800781 22.148438 -1.375 14.429688 -1.375 4.078125 C -1.375 -6.265625 5.4375 -15.34375 19.0625 -23.15625 C 34.488281 -32.226562 55.367188 -36.765625 81.703125 -36.765625 C 91.140625 -36.765625 99.671875 -36.039062 107.296875 -34.59375 C 115.460938 -47.300781 124.992188 -64.820312 135.890625 -87.15625 C 134.804688 -87.15625 133.804688 -87.15625 132.890625 -87.15625 C 121.453125 -87.15625 110.832031 -89.0625 101.03125 -92.875 C 91.226562 -96.6875 83.421875 -101.859375 77.609375 -108.390625 C 69.984375 -116.921875 66.171875 -126.546875 66.171875 -137.265625 C 66.171875 -142.890625 67.578125 -148.96875 70.390625 -155.5 C 73.203125 -162.039062 79.460938 -168.671875 89.171875 -175.390625 C 98.890625 -182.109375 111.195312 -187.191406 126.09375 -190.640625 C 128.445312 -191.179688 130.441406 -191.453125 132.078125 -191.453125 C 133.710938 -191.453125 134.710938 -191 135.078125 -190.09375 C 135.441406 -189.1875 134.710938 -188.367188 132.890625 -187.640625 C 131.078125 -186.921875 128.992188 -186.378906 126.640625 -186.015625 C 118.828125 -185.109375 111.5625 -182.472656 104.84375 -178.109375 C 93.226562 -170.671875 85.148438 -159.234375 80.609375 -143.796875 C 79.515625 -140.160156 78.96875 -136.664062 78.96875 -133.3125 C 78.96875 -129.957031 79.601562 -125.914062 80.875 -121.1875 C 82.144531 -116.46875 84.867188 -111.613281 89.046875 -106.625 C 93.222656 -101.632812 98.894531 -98.140625 106.0625 -96.140625 C 113.238281 -94.140625 119.503906 -93.140625 124.859375 -93.140625 C 130.210938 -93.140625 135.160156 -93.410156 139.703125 -93.953125 L 162.859375 -152.234375 C 178.835938 -193.273438 197.898438 -218.515625 220.046875 -227.953125 C 225.859375 -230.304688 231.53125 -231.484375 237.0625 -231.484375 C 242.601562 -231.484375 247.867188 -229.710938 252.859375 -226.171875 C 257.859375 -222.640625 260.539062 -218.332031 260.90625 -213.25 C 261.082031 -211.070312 261.171875 -208.984375 261.171875 -206.984375 Z M 249.734375 -206.703125 C 249.734375 -213.609375 246.554688 -217.0625 240.203125 -217.0625 C 230.941406 -217.0625 219.6875 -208.976562 206.4375 -192.8125 C 196.082031 -179.925781 186.140625 -164.359375 176.609375 -146.109375 C 167.078125 -127.859375 158.585938 -111.019531 151.140625 -95.59375 C 176.378906 -101.21875 199.117188 -115.0625 219.359375 -137.125 C 239.609375 -159.1875 249.734375 -182.378906 249.734375 -206.703125 Z M 98.859375 -21.515625 C 89.960938 -23.515625 80.789062 -24.515625 71.34375 -24.515625 C 61.90625 -24.515625 52.191406 -23.148438 42.203125 -20.421875 C 21.328125 -14.972656 9.070312 -7.257812 5.4375 2.71875 C 4.707031 4.539062 4.34375 6.265625 4.34375 7.890625 C 4.34375 12.617188 6.929688 16.476562 12.109375 19.46875 C 17.285156 22.46875 22.960938 23.96875 29.140625 23.96875 C 37.671875 23.96875 46.925781 21.609375 56.90625 16.890625 C 71.976562 9.617188 85.960938 -3.179688 98.859375 -21.515625 Z M 98.859375 -21.515625 "/></g></g></g></g></g><g transform="matrix(1, 0, 0, 1, 106, 118)"><g clip-path="url(#213dfffb56)"><g fill="#00c9a7" fill-opacity="1"><g transform="translate(1.511439, 232.062298)"><g><path d="M 245.375 -184.921875 C 245.375 -191.273438 242.46875 -197.265625 236.65625 -202.890625 C 228.300781 -210.878906 216.773438 -214.875 202.078125 -214.875 C 189.179688 -214.875 174.925781 -212.0625 159.3125 -206.4375 C 151.144531 -203.53125 144.066406 -199.535156 138.078125 -194.453125 C 128.816406 -186.460938 124.1875 -178.472656 124.1875 -170.484375 C 124.1875 -159.773438 130.992188 -150.15625 144.609375 -141.625 C 149.691406 -138.53125 159.90625 -133.488281 175.25 -126.5 C 190.59375 -119.507812 201.800781 -113.835938 208.875 -109.484375 C 219.59375 -102.941406 226.992188 -95.945312 231.078125 -88.5 C 235.160156 -81.0625 237.203125 -74.164062 237.203125 -67.8125 C 237.203125 -58.738281 234.207031 -49.476562 228.21875 -40.03125 C 217.6875 -23.144531 202.253906 -8.617188 181.921875 3.546875 C 158.492188 17.703125 130.257812 24.78125 97.21875 24.78125 C 65.445312 24.78125 40.210938 16.703125 21.515625 0.546875 C 6.984375 -11.796875 -0.28125 -27.679688 -0.28125 -47.109375 C -0.28125 -59.460938 4.210938 -73.082031 13.203125 -87.96875 C 22.191406 -102.851562 33.222656 -113.382812 46.296875 -119.5625 C 49.015625 -120.644531 51.054688 -121.003906 52.421875 -120.640625 C 53.785156 -120.285156 52.648438 -118.5625 49.015625 -115.46875 C 41.203125 -109.300781 34.9375 -102.492188 30.21875 -95.046875 C 20.050781 -79.066406 14.96875 -61.726562 14.96875 -43.03125 C 14.96875 -30.6875 18.421875 -19.882812 25.328125 -10.625 C 37.671875 5.894531 59.09375 15.25 89.59375 17.4375 C 93.039062 17.789062 98.164062 17.96875 104.96875 17.96875 C 111.78125 17.96875 121.039062 16.742188 132.75 14.296875 C 144.46875 11.847656 155.773438 7.804688 166.671875 2.171875 C 190.085938 -10.171875 205.25 -26.144531 212.15625 -45.75 C 214.332031 -51.5625 215.421875 -57.191406 215.421875 -62.640625 C 215.421875 -74.984375 209.878906 -85.875 198.796875 -95.3125 C 192.804688 -100.039062 180.597656 -106.351562 162.171875 -114.25 C 143.742188 -122.144531 131.351562 -128.179688 125 -132.359375 C 111.019531 -141.796875 104.03125 -152.960938 104.03125 -165.859375 C 104.03125 -177.117188 110.289062 -188.101562 122.8125 -198.8125 C 140.789062 -214.0625 166.210938 -221.6875 199.078125 -221.6875 C 214.503906 -221.6875 227.070312 -219.367188 236.78125 -214.734375 C 246.5 -210.109375 252.453125 -203.164062 254.640625 -193.90625 C 254.992188 -192.09375 255.171875 -190.28125 255.171875 -188.46875 C 255.171875 -181.382812 251.90625 -175.023438 245.375 -169.390625 C 240.832031 -165.765625 234.75 -162.863281 227.125 -160.6875 C 223.851562 -159.78125 222.039062 -160.140625 221.6875 -161.765625 C 221.320312 -164.128906 223.585938 -165.582031 228.484375 -166.125 C 237.203125 -167.21875 242.5625 -171.578125 244.5625 -179.203125 C 245.101562 -181.203125 245.375 -183.109375 245.375 -184.921875 Z M 245.375 -184.921875 "/></g></g></g></g></g></svg>